<svg width="24" height="24" viewBox="0 0 24 24" fill="none" xmlns="http://www.w3.org/2000/svg">
<path d="M3.91334 16.4978C3.50972 15.8241 3.20677 15.121 3 14.4046C3.90806 13.9581 4.52987 13.0483 4.52987 11.9985C4.52987 10.9496 3.90899 10.0403 3.00205 9.59342C3.41919 8.14385 4.21132 6.79386 5.3376 5.69041C6.19289 6.22506 7.32149 6.28911 8.26494 5.76419C9.20839 5.23927 9.71512 4.26535 9.6623 3.28424C11.2171 2.89601 12.8264 2.9099 14.3376 3.28656C14.2857 4.26689 14.7923 5.23968 15.7351 5.76419C16.6785 6.28909 17.8071 6.22506 18.6623 5.69046C19.2027 6.22119 19.683 6.82557 20.0867 7.49929C20.4903 8.173 20.7933 8.87609 21 9.5924C20.0919 10.0389 19.4701 10.9488 19.4701 11.9985C19.4701 13.0476 20.091 13.9568 20.9979 14.4036C20.5808 15.8532 19.7887 17.2032 18.6624 18.3066C17.8071 17.772 16.6785 17.708 15.7351 18.2329C14.7916 18.7577 14.2849 19.7317 14.3377 20.7128C12.7829 21.101 11.1737 21.0872 9.66242 20.7105C9.71432 19.7301 9.20764 18.7574 8.26494 18.2329C7.32152 17.708 6.19298 17.772 5.33769 18.3066C4.79735 17.7758 4.31697 17.1715 3.91334 16.4978ZM9.19871 16.6743C10.2178 17.2413 10.9497 18.1377 11.3002 19.1665C11.7655 19.2091 12.2339 19.2097 12.6993 19.1679C13.0496 18.1386 13.7817 17.2416 14.8013 16.6743C15.8209 16.107 16.9931 15.9446 18.0933 16.1668C18.3635 15.7993 18.5971 15.4081 18.7915 14.9984C18.0423 14.1915 17.6026 13.1325 17.6026 11.9985C17.6026 10.8645 18.0423 9.80559 18.7915 8.9987C18.6943 8.79533 18.5869 8.59531 18.4693 8.39914C18.3517 8.20295 18.2257 8.01334 18.0915 7.83062C16.9919 8.05229 15.8204 7.88976 14.8013 7.32277C13.7822 6.75578 13.0504 5.85929 12.6998 4.83064C12.2345 4.78798 11.7661 4.78737 11.3008 4.82917C10.9503 5.85841 10.2183 6.7555 9.19871 7.32277C8.17911 7.89006 7.0069 8.05245 5.90677 7.83027C5.63651 8.19775 5.40286 8.58897 5.20857 8.99858C5.95769 9.80551 6.39741 10.8645 6.39741 11.9985C6.39741 13.1325 5.95771 14.1915 5.20857 14.9984C5.30579 15.2017 5.41314 15.4018 5.53068 15.5979C5.64822 15.7941 5.77429 15.9837 5.90849 16.1664C7.00814 15.9448 8.17965 16.1073 9.19871 16.6743ZM12 14.6981C10.4529 14.6981 9.19871 13.4895 9.19871 11.9985C9.19871 10.5077 10.4529 9.29899 12 9.29899C13.5471 9.29899 14.8013 10.5077 14.8013 11.9985C14.8013 13.4895 13.5471 14.6981 12 14.6981ZM12 12.8984C12.5157 12.8984 12.9338 12.4955 12.9338 11.9985C12.9338 11.5015 12.5157 11.0987 12 11.0987C11.4843 11.0987 11.0662 11.5015 11.0662 11.9985C11.0662 12.4955 11.4843 12.8984 12 12.8984Z" fill="#5B8EDC"/>
</svg>
